<?xml version="1.0" encoding="utf-8"?>
<!-- Generator: Adobe Illustrator 23.1.0, SVG Export Plug-In . SVG Version: 6.00 Build 0)  -->
<!DOCTYPE svg PUBLIC "-//W3C//DTD SVG 1.1//EN" "http://www.w3.org/Graphics/SVG/1.1/DTD/svg11.dtd" [
	<!ENTITY ns_extend "http://ns.adobe.com/Extensibility/1.0/">
	<!ENTITY ns_ai "http://ns.adobe.com/AdobeIllustrator/10.0/">
	<!ENTITY ns_graphs "http://ns.adobe.com/Graphs/1.0/">
	<!ENTITY ns_vars "http://ns.adobe.com/Variables/1.0/">
	<!ENTITY ns_imrep "http://ns.adobe.com/ImageReplacement/1.0/">
	<!ENTITY ns_sfw "http://ns.adobe.com/SaveForWeb/1.0/">
	<!ENTITY ns_custom "http://ns.adobe.com/GenericCustomNamespace/1.0/">
	<!ENTITY ns_adobe_xpath "http://ns.adobe.com/XPath/1.0/">
]>
<svg version="1.1" id="Layer_1" xmlns:x="&ns_extend;" xmlns:i="&ns_ai;" xmlns:graph="&ns_graphs;"
	 xmlns="http://www.w3.org/2000/svg" xmlns:xlink="http://www.w3.org/1999/xlink" x="0px" y="0px" viewBox="0 0 300 94"
	 style="enable-background:new 0 0 300 94;" xml:space="preserve">
<style type="text/css">
	.st0{fill:#B4925E;}
</style>
<metadata>
	<sfw  xmlns="&ns_sfw;">
		<slices></slices>
		<sliceSourceBounds  bottomLeftOrigin="true" height="80" width="286.9" x="521.8" y="331"></sliceSourceBounds>
	</sfw>
</metadata>
<g>
	<g>
		<path class="st0" d="M117.4,77.7l-0.3-0.4l-0.4,0.4h-3.1c-0.9,0-1.7-0.3-2.4-0.9c-0.7-0.6-1.1-1.4-1.1-2.2c0-0.9,0.3-1.8,1-2.4
			c0.7-0.7,1.5-1,2.5-1h3.4v-1.4h2.4v8H117.4z M113.7,73.4c-0.3,0-0.6,0.1-0.8,0.3c-0.2,0.2-0.3,0.5-0.3,0.8c0,0.3,0.1,0.5,0.3,0.7
			c0.2,0.2,0.5,0.3,0.8,0.3h3.3v-2.1H113.7z"/>
		<path class="st0" d="M125.5,72.6c-0.4-0.4-0.7-0.6-1-0.6c-0.3,0-0.8-0.1-1.5-0.1h-1.5v-2.2h2.3c0.8,0,1.4,0.1,2,0.3
			c0.5,0.2,1.1,0.6,1.7,1.2c0.6,0.6,0.9,1.5,0.9,2.6V76v0.5c0,0.2,0,0.4,0,0.5c0,0.1-0.1,0.3-0.2,0.4c-0.1,0.1-0.2,0.2-0.4,0.2
			c-0.1,0-0.3,0.1-0.5,0.1c-0.1,0-0.3,0-0.6,0h-5.1v-2.2h4.6v-1.4C126.1,73.5,125.9,73,125.5,72.6"/>
		<path class="st0" d="M130.3,77.7v-2.2h4.2V64.8h2.2v12.9H130.3z M130.3,64.8h2.2V74h-2.2V64.8z"/>
		<path class="st0" d="M145.1,78.5c0,0.5,0,1-0.1,1.4c-0.1,0.4-0.3,0.7-0.6,1.1c-0.3,0.4-0.7,0.7-1.2,0.9c-0.5,0.2-1,0.3-1.7,0.3
			h-2.9V80h2.2h0.4c0.3,0,0.5,0,0.7-0.1c0.2,0,0.3-0.1,0.5-0.3c0.1-0.2,0.2-0.3,0.3-0.5c0-0.2,0.1-0.4,0.1-0.7v-0.9h-4.1v-3.2
			c0-0.8,0-1.5,0.1-1.9c0.1-0.5,0.3-0.9,0.7-1.4c0.4-0.5,0.8-0.8,1.3-1.1c0.5-0.2,1-0.4,1.7-0.4h2.6V78.5z M142.9,71.9
			c-0.1,0-0.2,0-0.3,0c-0.5,0-0.9,0.2-1.3,0.5c-0.2,0.2-0.3,0.4-0.4,0.7c-0.1,0.3-0.1,0.6-0.1,1v1.3h2V71.9z"/>
		<path class="st0" d="M146.9,66.1h0.6c-0.1-0.2-0.2-0.4-0.2-0.6c0-0.1,0-0.2,0-0.3c0-0.1,0.1-0.2,0.3-0.3c0.2-0.1,0.4-0.2,0.6-0.2
			h0.8v0.5h-0.8c-0.1,0-0.2,0-0.3,0.1c-0.1,0.1-0.2,0.2-0.2,0.3c0,0.2,0.2,0.4,0.5,0.4h0.8v0.2c0,0.1,0,0.2,0,0.2
			c0,0-0.1,0.1-0.1,0.1h-0.2h-1.8V66.1z M146.9,67.3h2.2v10.4h-2.2V67.3z"/>
		<path class="st0" d="M157.5,78.5c0,0.5,0,1-0.1,1.4c-0.1,0.4-0.3,0.7-0.6,1.1c-0.3,0.4-0.7,0.7-1.2,0.9c-0.5,0.2-1,0.3-1.7,0.3
			h-2.9V80h2.2h0.4c0.3,0,0.5,0,0.7-0.1c0.2,0,0.3-0.1,0.5-0.3c0.1-0.2,0.2-0.3,0.3-0.5c0-0.2,0.1-0.4,0.1-0.7v-0.9h-4.1v-3.2
			c0-0.8,0-1.5,0.1-1.9c0.1-0.5,0.3-0.9,0.7-1.4c0.4-0.5,0.8-0.8,1.3-1.1c0.5-0.2,1-0.4,1.7-0.4h2.6V78.5z M155.3,71.9
			c-0.1,0-0.2,0-0.3,0c-0.5,0-0.9,0.2-1.3,0.5c-0.2,0.2-0.3,0.4-0.4,0.7c-0.1,0.3-0.1,0.6-0.1,1v1.3h2V71.9z"/>
		<path class="st0" d="M174.6,77.7h-9.8v-2.2h4.6v-1.4c0-0.6-0.2-1.1-0.6-1.4c-0.4-0.4-0.7-0.6-1-0.6c-0.3,0-0.8-0.1-1.5-0.1h-1.5
			v-2.2h2.3c0.8,0,1.4,0.1,2,0.3c0.5,0.2,1.1,0.6,1.7,1.2c0.6,0.6,0.9,1.5,0.9,2.6v1.7h3V77.7z"/>
		<path class="st0" d="M172.2,75.4h1.1v-3.5h2.2v3.5h2.2v-3.5h2.2v3.5h2.2v-3.5h2.2v4.2c0,0.2,0,0.4,0,0.5c0,0.3-0.1,0.5-0.2,0.6
			c-0.1,0.1-0.2,0.2-0.4,0.3c-0.2,0-0.3,0.1-0.5,0.1c-0.2,0-0.4,0-0.5,0h-10.5V75.4z M177.1,69.1c-0.3,0-0.5,0.1-0.6,0.3
			c-0.2,0.2-0.2,0.4-0.2,0.6c0,0.3,0.1,0.5,0.3,0.7c0.2,0.2,0.4,0.3,0.8,0.3c0.3,0,0.5-0.1,0.7-0.3c0.2-0.2,0.2-0.4,0.2-0.6
			c0-0.3-0.1-0.5-0.3-0.7C177.7,69.2,177.4,69.1,177.1,69.1 M178.4,67c-0.3,0-0.5,0.1-0.7,0.3c-0.2,0.2-0.2,0.4-0.2,0.6
			c0,0.3,0.1,0.5,0.3,0.7c0.2,0.2,0.4,0.3,0.8,0.3c0.3,0,0.5-0.1,0.7-0.3c0.2-0.2,0.2-0.4,0.2-0.6c0-0.3-0.1-0.5-0.3-0.7
			C179,67.1,178.7,67,178.4,67 M179.7,69.2c-0.3,0-0.5,0.1-0.7,0.3c-0.2,0.2-0.2,0.4-0.2,0.6c0,0.3,0.1,0.5,0.3,0.7
			c0.2,0.2,0.4,0.3,0.8,0.3c0.3,0,0.5-0.1,0.6-0.3c0.2-0.2,0.2-0.4,0.2-0.6c0-0.3-0.1-0.5-0.3-0.7C180.3,69.3,180,69.2,179.7,69.2"
			/>
		<rect x="186.2" y="64.8" class="st0" width="2.2" height="12.9"/>
		<path class="st0" d="M197.8,77.7h-2.7v0.5v0.4c0,0.1,0,0.3,0,0.4c0,0.5,0,0.9-0.1,1.2c-0.1,0.2-0.2,0.6-0.5,0.9
			c-0.3,0.4-0.6,0.6-1.1,0.8c-0.5,0.2-1,0.3-1.7,0.3h-1.2V80h0.7h0.4c0.2,0,0.4,0,0.5-0.1c0.1,0,0.3-0.1,0.4-0.2
			c0.1-0.1,0.2-0.3,0.3-0.4c0.1-0.2,0.1-0.4,0.1-0.6c0-0.1,0-0.2,0-0.3c0-0.1,0-0.2,0-0.3v-6.2h2.2v3.5h2.7V77.7z"/>
		<polygon class="st0" points="196.2,75.4 199.1,75.4 199.1,64.8 201.3,64.8 201.3,77.7 196.2,77.7 		"/>
		<rect x="203.3" y="64.8" class="st0" width="2.2" height="12.9"/>
		<path class="st0" d="M222.8,77.7H213v-2.2h4.6v-1.4c0-0.6-0.2-1.1-0.6-1.4c-0.4-0.4-0.7-0.6-1-0.6c-0.3,0-0.8-0.1-1.5-0.1H213
			v-2.2h2.3c0.8,0,1.4,0.1,2,0.3c0.5,0.2,1.1,0.6,1.7,1.2c0.6,0.6,0.9,1.5,0.9,2.6v1.7h3V77.7z"/>
		<path class="st0" d="M220.4,75.4h1.1v-3.5h2.2v3.5h2.2v-3.5h2.2v3.5h2.2v-3.5h2.2v4.2c0,0.2,0,0.4,0,0.5c0,0.3-0.1,0.5-0.2,0.6
			c-0.1,0.1-0.2,0.2-0.4,0.3c-0.2,0-0.3,0.1-0.5,0.1c-0.2,0-0.4,0-0.5,0h-10.5V75.4z M225.3,69.1c-0.3,0-0.5,0.1-0.6,0.3
			c-0.2,0.2-0.2,0.4-0.2,0.6c0,0.3,0.1,0.5,0.3,0.7c0.2,0.2,0.4,0.3,0.8,0.3c0.3,0,0.5-0.1,0.7-0.3c0.2-0.2,0.2-0.4,0.2-0.6
			c0-0.3-0.1-0.5-0.3-0.7C225.9,69.2,225.6,69.1,225.3,69.1 M226.6,67c-0.3,0-0.5,0.1-0.7,0.3c-0.2,0.2-0.2,0.4-0.2,0.6
			c0,0.3,0.1,0.5,0.3,0.7c0.2,0.2,0.4,0.3,0.8,0.3c0.3,0,0.5-0.1,0.7-0.3c0.2-0.2,0.2-0.4,0.2-0.6c0-0.3-0.1-0.5-0.3-0.7
			C227.2,67.1,226.9,67,226.6,67 M227.9,69.2c-0.3,0-0.5,0.1-0.7,0.3c-0.2,0.2-0.2,0.4-0.2,0.6c0,0.3,0.1,0.5,0.3,0.7
			c0.2,0.2,0.4,0.3,0.8,0.3c0.3,0,0.5-0.1,0.6-0.3c0.2-0.2,0.2-0.4,0.2-0.6c0-0.3-0.1-0.5-0.3-0.7C228.5,69.3,228.2,69.2,227.9,69.2
			"/>
		<rect x="234.4" y="64.8" class="st0" width="2.2" height="12.9"/>
		<path class="st0" d="M241,78.1v-8.4h2.2v8.4v0.4c0,0.1,0,0.3,0,0.4c0,0.5,0,0.9-0.1,1.2c-0.1,0.2-0.2,0.6-0.5,0.9
			c-0.3,0.4-0.6,0.6-1.1,0.8c-0.5,0.2-1,0.3-1.7,0.3h-1.2V80h0.7h0.4c0.2,0,0.4,0,0.5-0.1c0.1,0,0.3-0.1,0.4-0.2
			c0.1-0.1,0.2-0.3,0.3-0.4c0.1-0.2,0.1-0.4,0.1-0.6c0-0.1,0-0.2,0-0.3C241,78.4,241,78.2,241,78.1"/>
		<path class="st0" d="M262.2,77.7h-5.1l-0.3-0.4l-0.4,0.4h-3.1c-0.9,0-1.7-0.3-2.4-0.9c-0.7-0.6-1.1-1.4-1.1-2.2
			c0-0.9,0.3-1.8,1-2.4c0.7-0.7,1.5-1,2.5-1h3.4v-1.4h2.4v5.8h3V77.7z M253.4,67.3c0.2,0.2,0.3,0.5,0.3,0.7c0,0.2-0.1,0.4-0.2,0.6
			c-0.2,0.2-0.4,0.3-0.7,0.3c-0.3,0-0.6-0.1-0.8-0.3c-0.2-0.2-0.3-0.5-0.3-0.7c0-0.2,0.1-0.5,0.2-0.6c0.2-0.2,0.4-0.3,0.6-0.3
			C252.9,67,253.2,67.1,253.4,67.3 M253.5,73.4c-0.3,0-0.6,0.1-0.8,0.3c-0.2,0.2-0.3,0.5-0.3,0.8c0,0.3,0.1,0.5,0.3,0.7
			c0.2,0.2,0.5,0.3,0.8,0.3h3.3v-2.1H253.5z M255.9,67.3c0.2,0.2,0.3,0.5,0.3,0.7c0,0.2-0.1,0.4-0.2,0.6c-0.2,0.2-0.4,0.3-0.6,0.3
			c-0.3,0-0.6-0.1-0.8-0.3c-0.2-0.2-0.3-0.4-0.3-0.7c0-0.2,0.1-0.5,0.2-0.6c0.2-0.2,0.4-0.3,0.7-0.3C255.5,67,255.8,67.1,255.9,67.3
			"/>
		<path class="st0" d="M259.8,75.4h8.4v-0.2c0-0.2-0.1-0.4-0.2-0.5c-0.1-0.2-0.2-0.3-0.4-0.4c-0.1-0.1-0.4-0.1-0.8-0.1h-3
			c-0.8,0-1.5-0.3-2.1-0.8c-0.6-0.6-0.9-1.2-0.9-2c0-0.8,0.3-1.4,0.9-1.9c0.6-0.5,1.3-0.8,2.1-0.8h5.4V71h-5.2c-0.3,0-0.5,0-0.7,0.1
			c-0.2,0.1-0.3,0.2-0.3,0.4c0,0.2,0.1,0.3,0.3,0.4c0.2,0.1,0.4,0.1,0.6,0.1h4c0.7,0,1.3,0.3,1.7,0.9c0.5,0.6,0.7,1.2,0.7,2
			c0,0.3,0,0.5-0.1,0.6c-0.1,0.6-0.5,1.1-0.9,1.5c-0.5,0.4-1,0.6-1.7,0.6h-7.9V75.4z"/>
		<path class="st0" d="M279.9,77.7h-2.7v0.5v0.4c0,0.1,0,0.3,0,0.4c0,0.5,0,0.9-0.1,1.2c-0.1,0.2-0.2,0.6-0.5,0.9
			c-0.3,0.4-0.6,0.6-1.1,0.8c-0.5,0.2-1,0.3-1.7,0.3h-1.2V80h0.7h0.4c0.2,0,0.4,0,0.5-0.1c0.1,0,0.3-0.1,0.4-0.2
			c0.1-0.1,0.2-0.3,0.3-0.4c0.1-0.2,0.1-0.4,0.1-0.6c0-0.1,0-0.2,0-0.3c0-0.1,0-0.2,0-0.3v-6.2h2.2v3.5h2.7V77.7z"/>
		<path class="st0" d="M278.2,75.4h1.1v-3.5h2.2v3.5h2.2v-3.5h2.2v3.5h2.2v-3.5h2.2v4.2c0,0.2,0,0.4,0,0.5c0,0.3-0.1,0.5-0.2,0.6
			c-0.1,0.1-0.2,0.2-0.4,0.3c-0.2,0-0.3,0.1-0.5,0.1c-0.2,0-0.4,0-0.5,0h-10.5V75.4z M283.2,69.1c-0.3,0-0.5,0.1-0.6,0.3
			c-0.2,0.2-0.2,0.4-0.2,0.6c0,0.3,0.1,0.5,0.3,0.7c0.2,0.2,0.4,0.3,0.8,0.3c0.3,0,0.5-0.1,0.7-0.3c0.2-0.2,0.2-0.4,0.2-0.6
			c0-0.3-0.1-0.5-0.3-0.7C283.8,69.2,283.5,69.1,283.2,69.1 M284.5,67c-0.3,0-0.5,0.1-0.7,0.3c-0.2,0.2-0.2,0.4-0.2,0.6
			c0,0.3,0.1,0.5,0.3,0.7c0.2,0.2,0.4,0.3,0.8,0.3c0.3,0,0.5-0.1,0.7-0.3c0.2-0.2,0.2-0.4,0.2-0.6c0-0.3-0.1-0.5-0.3-0.7
			C285.1,67.1,284.8,67,284.5,67 M285.8,69.2c-0.3,0-0.5,0.1-0.7,0.3c-0.2,0.2-0.2,0.4-0.2,0.6c0,0.3,0.1,0.5,0.3,0.7
			c0.2,0.2,0.4,0.3,0.8,0.3c0.3,0,0.5-0.1,0.6-0.3c0.2-0.2,0.2-0.4,0.2-0.6c0-0.3-0.1-0.5-0.3-0.7C286.3,69.3,286.1,69.2,285.8,69.2
			"/>
		<path class="st0" d="M218.7,16.7c0.1,0.1,0.3,0.2,0.4,0.3c0.5,0.3,0.8,0.7,0.8,1.2c0,0.8,0,1.6,0,2.4c0,1-0.5,1.6-1.5,1.6
			c-0.7,0-1.5,0-2.2,0c-1-0.1-1.5-0.7-1.5-1.6c0-0.7,0-1.3,0-2c0-0.8,0.3-1.4,1.1-1.8c0.1,0,0.1-0.1,0.2-0.1H218.7z"/>
		<path class="st0" d="M171.9,49.2c-20.3,0-40.7,0-61,0c-0.3,0-0.8-0.1-0.9-0.2c-0.1-0.3,0-0.8,0.1-1.1c0.6-1.2,1.4-2.3,2-3.5
			c0.3-0.5,0.7-0.7,1.3-0.7c4.1,0,8.1,0,12.2,0c0.7,0,0.8,0,0.7-0.8c-0.1-2-0.2-4-0.4-6c-0.2-1.8-1.4-2.9-3.1-3.2
			c-1.7-0.3-3.5-0.4-5.2-0.5c-1.1-0.1-2.2,0-3.3,0c-0.5,0-0.9-0.2-1.2-0.6c-0.7-1.2-1.4-2.4-2.1-3.7c-0.1-0.2-0.2-0.4-0.2-0.6
			c0-0.4,0.1-0.6,0.6-0.6c3.1,0,6.1-0.1,9.2,0c2.1,0.1,4.2,0.1,6.2,0.9c3.4,1.4,5.3,3.9,5.8,7.5c0.3,2.2,0.3,4.5,0.3,6.8
			c0,0.8,0,0.8,0.7,0.8c22.5,0,45.1,0,67.6,0c0.7,0,0.7,0,0.7-0.7c0-1.8,0-3.7,0-5.5c0-0.6,0.2-1,0.8-1.3c1.5-0.8,3-1.7,4.5-2.6
			c0.1-0.1,0.3-0.2,0.4-0.2c0.7-0.2,1,0,1,0.7c0,3,0,5.9,0,8.9c0,0.7,0,0.7,0.7,0.7c1.5,0,3.1,0,4.6,0c0.5,0,0.6-0.2,0.6-0.6
			c0-1.9,0-3.8,0-5.7c0-0.5,0.2-0.9,0.7-1.2c1.6-0.9,3.1-1.8,4.7-2.7c0.2-0.1,0.4-0.2,0.6-0.2c0.6,0,0.7,0.1,0.7,0.7c0,3,0,6,0,9
			c0,0.7,0,0.7,0.7,0.7c1.5,0,3,0,4.5,0c0.8,0,0.8,0,0.8-0.8c0-3.6,0-7.3,0-10.9c0-0.7,0.3-1.2,0.9-1.6c1.5-0.8,2.9-1.7,4.4-2.5
			c0.2-0.1,0.4-0.2,0.6-0.2c0.6-0.1,0.8,0.1,0.8,0.7c0,5.6,0,11.3,0,16.9c0,1.2-0.1,2.4-0.2,3.6c0,0.1-0.2,0.3-0.4,0.3
			c-0.1,0.1-0.3,0-0.5,0C212.6,49.2,192.2,49.2,171.9,49.2L171.9,49.2z"/>
		<path class="st0" d="M281.5,27c0,2.9,0.1,5.8,0,8.7c0,1.9-0.1,3.8-0.5,5.6c-0.7,4-3.5,6.7-7.5,7.4c-2.4,0.4-4.8,0.4-7.2,0.4
			c-0.9,0-0.9,0-1,0.9c-0.6,4.3-3.9,7.6-8.3,8.1c-1.8,0.2-3.6,0.3-5.4,0.3c-2.5,0.1-4.9,0-7.4,0c-0.7,0-0.9-0.4-0.7-1
			c0.1-0.1,0.1-0.3,0.2-0.4c0.7-1.1,1.3-2.2,2-3.3c0.3-0.5,0.7-0.8,1.3-0.8c1.8,0,3.6,0,5.4-0.1c1.1-0.1,2.2-0.2,3.3-0.5
			c1.7-0.4,2.7-1.6,2.9-3.4c0.2-1.6,0.3-3.3,0.3-4.9c0-3.1,0-6.1,0-9.2c0-0.7,0.2-1.1,0.8-1.4c1.4-0.8,2.9-1.7,4.3-2.5
			c0.2-0.1,0.4-0.2,0.6-0.3c0.6-0.2,1,0,1,0.7c0,3.8,0,7.6,0,11.4c0,0.8,0,0.8,0.8,0.8c1.6-0.1,3.3-0.2,4.9-0.5
			c1.9-0.4,3-1.8,3.2-3.7c0.4-3.6,0.3-7.1,0.3-10.7c0-2.5,0-5,0-7.5c0-0.6,0.2-0.9,0.7-1.2c1.5-0.9,3.1-1.8,4.6-2.7
			c0.2-0.1,0.4-0.2,0.6-0.2c0.5-0.1,0.8,0.2,0.8,0.7C281.5,20.9,281.5,23.9,281.5,27L281.5,27z"/>
		<path class="st0" d="M242.2,33.2c0-5.1,0-10.2,0-15.3c0-0.8,0.5-1.1,1.2-0.7c1.7,0.9,3.4,1.9,5,2.9c0.4,0.2,0.5,0.7,0.5,1.1
			c0,3.3,0,6.6,0,9.8c0,5.8,0,11.6,0,17.4c0,0.7,0,0.7-0.7,0.7c-1.8,0-3.6,0-5.3,0c-0.5,0-0.7-0.1-0.7-0.7
			C242.2,43.4,242.2,38.3,242.2,33.2L242.2,33.2z"/>
		<path class="st0" d="M291.2,49.1h-6.6c0-0.2,0-0.3,0-0.5c0-9.1,0-18.2,0-27.3c0-1.2,0-2.3,0-3.5c0-0.6,0.3-0.9,0.9-0.7
			c0.2,0.1,0.4,0.1,0.5,0.2c1.5,0.9,3.1,1.8,4.6,2.7c0.5,0.3,0.6,0.7,0.6,1.3c0,3.9,0,7.9,0,11.8c0,5.2,0,10.3,0,15.5V49.1z"/>
		<path class="st0" d="M218.7,26c0-0.4,0-0.8,0-1.2c0-0.8,0.6-1.4,1.4-1.5c0.8,0,1.6,0,2.4,0c0.8,0,1.4,0.6,1.4,1.5
			c0,0.8,0,1.7,0,2.5c0,0.9-0.6,1.5-1.5,1.5c-0.8,0-1.6,0-2.3,0c-0.8,0-1.4-0.6-1.4-1.4C218.7,26.8,218.7,26.4,218.7,26"/>
		<path class="st0" d="M216,26c0,0.4,0,0.9,0,1.3c0,0.8-0.6,1.3-1.3,1.3c-0.8,0-1.7,0-2.5,0c-0.7,0-1.3-0.6-1.3-1.3
			c0-0.9,0-1.9,0-2.8c0-0.7,0.6-1.3,1.4-1.3c0.8,0,1.6,0,2.4,0c0.8,0,1.4,0.6,1.4,1.4C216.1,25.1,216,25.5,216,26L216,26z"/>
		<path class="st0" d="M49.7,87.4c-6.6,0-13.2,0-19.9,0c-2.2,0-3.8-1-4.9-2.9c-6.5-11.3-13.1-22.7-19.7-34c-1.2-2.1-1.2-4.1,0-6.2
			C11.1,34.1,17,23.9,22.9,13.7c0.7-1.3,1.4-2.5,2.2-3.8c1-1.7,2.5-2.6,4.5-2.6c13.5,0,26.9,0,40.4,0c1.9,0,3.5,0.9,4.4,2.6
			C81,21.5,87.7,33.1,94.4,44.7c1,1.8,1,3.6,0,5.4c-6.6,11.5-13.3,23-20,34.5c-1,1.8-2.6,2.7-4.7,2.7C63.1,87.4,56.4,87.4,49.7,87.4
			 M49.7,85.3c6.2,0,12.4,0,18.6,0c2.2,0,3.9-1,5-2.9c6.2-10.7,12.4-21.5,18.6-32.2c1.1-1.9,1.1-3.8,0-5.6
			c-6.1-10.6-12.3-21.3-18.4-31.9c-1.3-2.2-3.1-3.2-5.6-3.2c-2.9,0-5.9,0-8.8,0c-9.1,0-18.3,0-27.4,0c-2.4,0-4.3,1-5.5,3.1
			c-0.4,0.8-0.9,1.6-1.3,2.3C19,24.9,13.2,34.8,7.5,44.7c-1,1.7-1,3.5,0,5.2c6.2,10.8,12.4,21.5,18.7,32.3c1.2,2,2.9,3,5.3,3
			C37.5,85.3,43.6,85.3,49.7,85.3"/>
		<path class="st0" d="M49.7,83c-5.8,0-11.6,0-17.4,0c-2.1,0-3.7-0.9-4.7-2.7C21.7,70.2,15.8,60,10,49.9c-0.9-1.6-0.9-3.4,0-5
			c5.6-9.7,11.2-19.4,16.8-29.1c0.3-0.4,0.5-0.9,0.8-1.3c1.1-1.8,2.6-2.7,4.7-2.7c11.6,0,23.3,0,34.9,0c2,0,3.7,0.9,4.7,2.7
			c4.5,7.7,8.9,15.5,13.4,23.2c1.3,2.3,2.7,4.7,4,7c1,1.8,1,3.6,0,5.4c-5.8,10.1-11.6,20.2-17.5,30.3c-1,1.7-2.6,2.6-4.5,2.6
			C61.4,83,55.6,83,49.7,83 M78.8,47.4c0-4.5,0-9,0-13.5c0-2.1-1-3.8-2.9-4.9c-1.4-0.8-2.7-1.6-4.1-2.4c-6.5-3.8-13-7.6-19.6-11.3
			c-1.7-0.9-3.4-1-5.1,0c-8,4.6-15.9,9.1-23.9,13.8c-1.8,1.1-2.8,2.7-2.8,4.9c0,9,0,18,0,27c0,2.2,1,3.8,2.8,4.9
			c7.9,4.6,15.8,9.1,23.7,13.7c1.7,1,3.5,1,5.3,0c7.8-4.5,15.7-9,23.5-13.6c2-1.2,3-2.9,3-5.2C78.8,56.2,78.8,51.8,78.8,47.4"/>
		<path class="st0" d="M46.5,38.3c1.4,0,2.8,0,4.2,0c3.9,0,6.1,2.1,6.2,5.9c0.1,3.1,0,6.3,0,9.4c0,0.3-0.2,0.6-0.5,0.8
			c-1,0.6-2,1.2-3,1.8c-0.6,0.3-0.9,0.2-0.9-0.5c0-1.1,0-1.1-1.1-0.8c-1,0.3-2,0.6-2.9,1c-1.8,0.7-3.6,0.5-5.4,0.2
			c-1.7-0.3-2.8-1.5-3.2-3.2c-0.4-1.6-0.2-3.1,0.6-4.5c0.8-1.4,2.1-2,3.7-2.1c1.5-0.1,3.1-0.1,4.6-0.1c1,0,2.1,0,3.1,0
			c0.4,0,0.6-0.1,0.6-0.6c0-0.4,0-0.7,0-1.1c0-2-0.8-2.8-2.9-2.9c-2,0-3.9-0.1-5.9,0c-0.8,0-1.3-0.2-1.7-1c-0.3-0.6-0.6-1.1-0.9-1.7
			c-0.3-0.6-0.1-0.8,0.5-0.8C43.2,38.3,44.8,38.3,46.5,38.3L46.5,38.3z M49,53C49,53,49,53,49,53c1-0.1,1.9-0.1,2.9,0
			c0.4,0,0.5-0.1,0.5-0.5c0-0.8,0-1.5,0-2.3c0-0.3-0.1-0.5-0.5-0.5c-2,0-4.1,0-6.1,0c-0.9,0-1.5,0.7-1.6,1.5
			c-0.1,0.9,0.4,1.5,1.3,1.6C46.7,53,47.8,53,49,53"/>
		<path class="st0" d="M31,40.2c0.2-0.1,0.3-0.2,0.5-0.3c1.9-1.5,4.1-1.8,6.4-1.5c0.3,0,0.4,0.2,0.4,0.5c0,1.9-0.1,3.7-0.1,5.6
			c-0.8-0.3-1.5-0.7-2.2-1c-2.9-0.9-4.9,0.6-4.9,3.6c0,2.8,0,5.7,0,8.5c0,0.8,0,0.8-0.8,0.8c-1.3,0-2.5,0-3.8,0
			c-0.4,0-0.6-0.1-0.6-0.6c0-5.5,0-10.9,0-16.4c0-0.5,0.2-0.6,0.6-0.5c1.3,0,2.6,0,3.9,0c0.5,0,0.7,0.1,0.7,0.6
			C30.9,39.7,30.9,39.9,31,40.2"/>
		<path class="st0" d="M73.5,44.6c-1-0.4-1.7-0.9-2.6-1.1c-0.7-0.2-1.4-0.2-2.1-0.1c-1.6,0.3-2.6,1.6-2.6,3.4c0,3,0,5.9,0,8.9
			c0,0.6-0.1,0.7-0.7,0.7c-1.5,0-3,0-4.5,0c0-0.2,0-0.3,0-0.5c0-5.4,0-10.8,0-16.2c0-0.8,0-0.8,0.8-0.8c1.2,0,2.4,0,3.6,0
			c0.6,0,0.8,0.1,0.8,0.7c0,0.1,0,0.3,0,0.5c0.2-0.1,0.3-0.2,0.4-0.2c1.9-1.5,4.2-1.8,6.5-1.5c0.4,0,0.4,0.3,0.4,0.5
			C73.5,40.8,73.5,42.7,73.5,44.6"/>
	</g>
</g>
</svg>
